Simulation
nRows=42
nColumns=15
endheader
time  TH_x TH_y TH_z SC_y  SC_z  SC_x  AC_y  AC_z  AC_x  GH_y  GH_z  GH_yy  EL_x  PS_y
0.0  0.000000  0.000000  0.000000  -22.820336323884423  2.616103746921461  -6.197940257161367  51.36382531331365  13.259470940669521  11.182708609409438  52.619817804715154  -6.129816352484606  0.9185186192744007  22.1421561122701  120.000000
0.02849999999999998  0.000000  0.000000  0.000000  -22.52317254582345  2.7320480709513424  -7.250360221965507  50.98493190175509  14.24362816909147  11.668224808709915  53.39528303141234  -5.06899856798576  -0.5368017775017812  21.413223515178668  120.000000
0.05699999999999996  0.000000  0.000000  0.000000  -22.281746957624694  2.7720613895244637  -8.340225535407017  50.623597237051335  15.201389250128116  12.255731575449717  54.17842645789239  -3.943658996473107  -1.9557401594574373  20.70756341670389  120.000000
0.08549999999999994  0.000000  0.000000  0.000000  -22.119786213878303  2.7829368777658012  -9.45418345879172  50.272641798777805  16.172529815557564  12.934343389393913  54.95385254217413  -2.7014028622535076  -3.3368957192455637  20.047543691677717  120.000000
0.11399999999999992  0.000000  0.000000  0.000000  -22.049431948557633  2.8101493627636427  -10.585739095049806  49.92524067943989  17.18911994569748  13.67571886076722  55.694686754027025  -1.300335672448002  -4.694146951813951  19.46500699275237  120.000000
0.1424999999999999  0.000000  0.000000  0.000000  -22.063027802954963  2.8766892706960165  -11.724500428774068  49.58462643250199  18.261117094473068  14.444831666277885  56.377111567984024  0.29798492458715914  -6.042312431861598  18.96000049291597  120.000000
0.17099999999999987  0.000000  0.000000  0.000000  -22.14467473853252  2.9726218585920154  -12.842283088868482  49.252441467231  19.366078663168068  15.207005704540162  56.964267769259486  2.11511265097841  -7.407598717792884  18.52182657577564  120.000000
0.19949999999999987  0.000000  0.000000  0.000000  -22.276051109162033  3.0808745641041493  -13.900960244617172  48.93011042496292  20.473783726963482  15.950160938944967  57.413701264355296  4.1374379469116525  -8.815402445015755  18.147872230008794  120.000000
0.22799999999999984  0.000000  0.000000  0.000000  -22.437489234008336  3.1898454359479707  -14.865289346292428  48.62731458994104  21.56848630904514  16.67867857786178  57.70111962167673  6.327000367514441  -10.266477064305871  17.840634707039225  120.000000
0.25649999999999984  0.000000  0.000000  0.000000  -22.610395490184935  3.287885594446691  -15.711916924245187  48.35487548703501  22.64628255549012  17.390941494143465  57.813286628356366  8.644001197154092  -11.74676893919834  17.60731959397624  120.000000
0.2849999999999998  0.000000  0.000000  0.000000  -22.782682039024785  3.370717395030069  -16.429852459790794  48.12129433933827  23.70719056793464  18.076132319416576  57.738722215880124  11.051922864432614  -13.24027191052375  17.460502883503224  120.000000
0.3134999999999998  0.000000  0.000000  0.000000  -22.952398463344625  3.4437828453894275  -17.014855757804668  47.93293896282797  24.749911601147097  18.72122719907177  57.47678413773741  13.517878909814781  -14.72374819004353  17.406236267525756  120.000000
0.34199999999999975  0.000000  0.000000  0.000000  -23.124969363593557  3.512827091976608  -17.468067341290638  47.791419542094495  25.77433609047778  19.314244174624264  57.041099657936634  16.01471683479939  -16.169090449860743  17.44269284446482  120.000000
0.3704999999999997  0.000000  0.000000  0.000000  -23.31039459150444  3.5809281469618277  -17.79242827494472  47.69519085212253  26.7787421912375  19.848758146349095  56.45832185869256  18.520868786324016  -17.54821174882792  17.55782255349785  120.000000
0.39899999999999974  0.000000  0.000000  0.000000  -23.518575267690377  3.6479435615873324  -17.992454870288157  47.6417813313409  27.757300238480582  20.325491847596478  55.76117633843744  21.020188751159374  -18.843809748095023  17.73187958040785  120.000000
0.4274999999999997  0.000000  0.000000  0.000000  -23.756883725925295  3.7108664650648437  -18.075203310390688  47.630844659908334  28.70206868224564  20.749366712216776  54.98358246098262  23.501380392628104  -20.052208855983835  17.94208386995893  120.000000
0.4559999999999997  0.000000  0.000000  0.000000  -24.02952169192865  3.76704947564474  -18.050525058397593  47.66432309842152  29.606394859385574  21.125727502451134  54.159281049605816  25.955158922241502  -21.18026029124098  18.168538933280676  120.000000
0.48449999999999965  0.000000  0.000000  0.000000  -24.337500010512162  3.816202363063711  -17.9301996938706  47.74355267073501  30.46643715199714  21.45711870919087  53.31856797989456  28.370789177036954  -22.240442551863506  18.399626224058235  120.000000
0.5129999999999997  0.000000  0.000000  0.000000  -24.679892614647926  3.8595620616450694  -17.725874494031945  47.865252037990246  31.280680093771704  21.743491259141173  52.485944565433186  30.733114374074063  -23.246573264351426  18.63324238756019  120.000000
0.5414999999999996  0.000000  0.000000  0.000000  -25.05407175150297  3.898135520497674  -17.447080578617456  48.01963853255263  32.047865575990244  21.984071851643726  51.67852752656477  33.02236334765258  -24.211370055318778  18.87556759707844  120.000000
0.5699999999999996  0.000000  0.000000  0.000000  -25.455217277601232  3.9320036483869796  -17.100516316598473  48.19164623086473  32.76571790888251  22.17907664733845  50.9069147672918  35.21673231946812  -25.145639074134262  19.136417408143107  120.000000
0.5984999999999996  0.000000  0.000000  0.000000  -25.87588037466535  3.9622810733688363  -16.690472484383772  48.364336142577436  33.43048982880534  22.33015471120529  50.177488391724104  37.296213065317566  -26.059047894722106  19.424262370775942  120.000000
0.6269999999999996  0.000000  0.000000  0.000000  -26.306195458875816  3.9930287188331635  -16.218886602816852  48.52083971862574  34.037156596518265  22.440915618870203  49.495136656624936  39.245203142295026  -26.96052114441508  19.74286299258563  120.000000
0.6554999999999995  0.000000  0.000000  0.000000  -26.73469573257404  4.031675701910514  -15.684595379923403  48.64545153835365  34.57974705322924  22.5181814698444  48.864028029788535  41.05278397733277  -27.85940586484373  20.08957432881125  120.000000
0.6839999999999995  0.000000  0.000000  0.000000  -27.149866593751902  4.089786467403597  -15.082952358160355  48.724677463085584  35.05266717491799  22.571769365410468  48.28642783742587  42.712580510625884  -28.7655130830012  20.456193807363285  120.000000
0.7124999999999995  0.000000  0.000000  0.000000  -27.541505202601474  4.181810218919592  -14.404805942809135  48.74744905254295  35.45316957670873  22.614466425264265  47.760926576662975  44.21961953076989  -29.686436416994976  20.832053625740645  120.000000
0.7409999999999994  0.000000  0.000000  0.000000  -27.90080771831881  4.320937422887393  -13.6365731274215  48.70627814307505  35.782566662038995  22.661126741007045  47.279793923277076  45.56748090178181  -30.624616713737854  21.20769413850379  120.000000
0.7694999999999995  0.000000  0.000000  0.000000  -28.220711584258247  4.515585488477731  -12.76213961966626  48.599698346223406  36.04601174596552  22.72745021979837  46.82762307316661  46.74616986398287  -31.57461143940513  21.578051104827498  120.000000
0.7979999999999995  0.000000  0.000000  0.000000  -28.496381027442485  4.766255529188348  -11.765809093487153  48.43460455111206  36.250455027009586  22.827994691600136  46.381305075098126  47.74126808317319  -32.52073036991718  21.943850361350577  120.000000
0.8264999999999995  0.000000  0.000000  0.000000  -28.725375272457576  5.061489595798153  -10.636726917502058  48.22761301684984  36.40276830561016  22.973459676466675  45.91198283590626  48.53552545052011  -33.43672921071995  22.309923606742856  120.000000
0.8549999999999994  0.000000  0.000000  0.000000  -28.90815507674507  5.376591512352458  -9.37286760558675  48.00477188434076  36.50754441953217  23.168200211130078  45.38897133621054  49.11289873872994  -34.287344840293564  22.681613827306357  120.000000
0.8834999999999994  0.000000  0.000000  0.000000  -29.04958496936622  5.67178240467243  -7.984680032068558  47.79883023169386  36.57016592863531  23.407506194075978  44.78539437785457  49.4643373369234  -35.03259925322935  23.061030952095408  120.000000
0.9119999999999994  0.000000  0.000000  0.000000  -29.158537821998056  5.8927207764536425  -6.4949705026551685  47.64351177541714  36.60212031252474  23.676513997911226  44.08431139684988  49.59105887783322  -35.63299085580798  23.443408892123895  120.000000
0.9404999999999993  0.000000  0.000000  0.000000  -29.24192102170203  5.998540930004685  -4.92553833913312  47.566911872660675  36.589684591287416  23.947352001065575  43.28505298292006  49.51553861962064  -36.05621692357361  23.818553323461387  120.000000
0.9689999999999993  0.000000  0.000000  0.000000  -29.30241726204928  5.99256178603083  -3.291499884800941  47.58876538132736  36.47250187208219  24.17893518261572  42.404915844414276  49.292981190454576  -36.28529642072713  24.176344059998648  120.000000
0.9974999999999993  0.000000  0.000000  0.000000  -29.34554561096365  5.90686575451077  -1.6131832833127633  47.718255976048496  36.194586258416024  24.330124048587624  41.4763348997338  48.994969071410864  -36.322699157360695  24.50749201482132  120.000000
1.0259999999999994  0.000000  0.000000  0.000000  -29.38329150091329  5.774571065812349  0.08303277563052208  47.95297453659248  35.74265638604559  24.372074264657694  40.540513346730336  48.68628590295754  -36.1889610260446  24.80290398643134  120.000000
1.0544999999999993  0.000000  0.000000  0.000000  -29.428457888934457  5.622536830197327  1.7719349115754486  48.2813206572022  35.13628024436189  24.289671895108366  39.64012259282209  48.416096562942585  -35.92101071536437  25.054937144390387  120.000000
1.0829999999999993  0.000000  0.000000  0.000000  -29.487821546615706  5.467451010406475  3.4292345986732773  48.685013125599895  34.41359429872158  24.080993876321607  38.81364897203935  48.21437430926039  -35.56600942711005  25.258901525105745  120.000000
1.1114999999999993  0.000000  0.000000  0.000000  -29.562184170371193  5.318057632292833  5.032185598784831  49.14361157388011  33.61665828961414  23.75348077043915  38.09255488216368  48.09256664254754  -35.175150198642115  25.414049836655824  120.000000
1.1399999999999992  0.000000  0.000000  0.000000  -29.64774392750295  5.180446250023307  6.5642745381330645  49.63759081094881  32.77894864414493  23.31656648544397  37.50097382417137  48.04690462960102  -34.79736645426637  25.522597260873056  120.000000
1.1684999999999992  0.000000  0.000000  0.000000  -29.735707283676497  5.057623841037112  8.01157483216429  50.147653144380406  31.92608419366038  22.779722796262607  37.05667370578459  48.06223821850164  -34.47463842562692  25.58816186414155  120.000000
